# xmcd CD database file
#
# Track frame offsets:
#	150
#	24560
#	41017
#	65360
#
# Disc length: 1087 seconds
#
# Revision: 0
# Processed by: cddbd v1.5.1PL2 Copyright (c) Steve Scherf et al.
# Submitted via: CDex 1.51
#
DISCID=2d043d04
DTITLE=RiNA - 忘れないで
DYEAR=1990
DGENRE=JPop
TTITLE0=忘れないで
TTITLE1=私から手をひいて！
TTITLE2=忘れないで（カラオケ）
TTITLE3=私から手をひいて！（カラオケ）
EXTD=YEAR: 1990
EXTT0=
EXTT1=
EXTT2=
EXTT3=
PLAYORDER=
